<svg xmlns="http://www.w3.org/2000/svg" width="500" height="500" fill="none" viewBox="0 0 500 500">
  <g clip-path="url(#a)">
    <mask id="b" width="500" height="500" x="0" y="0" maskUnits="userSpaceOnUse" style="mask-type:luminance">
      <path fill="#fff" d="M500 0H0v500h500V0Z"/>
    </mask>
    <g mask="url(#b)">
      <path fill="#000" d="M250 0c138.072 0 250 111.929 250 250 0 138.072-111.928 250-250 250C111.929 500 0 388.072 0 250 0 111.929 111.929 0 250 0Z"/>
      <path fill="#fff" d="M240.235 141.514c-72.698 0-129.249 45.766-129.249 102.681 0 53.753 52.034 88.075 132.699 86.357 6.86-.147 8.843 4.461 11.075 10.671 2.233 6.21 8.233 38.939 13.015 63.972 4.28 22.405 8.628 44.892 11.948 67.465 52.675-6.963 101.382-32.982 137.07-72.225L378.728 258.48c-9.488-34.283-20.578-65.873-49.923-88.823-23.608-18.463-53.602-28.143-88.57-28.143Z"/>
      <path fill="#000" d="M255.86 182.617c8.63 0 15.625 6.995 15.625 15.625 0 8.63-6.995 15.625-15.625 15.625-8.63 0-15.625-6.995-15.625-15.625 0-8.63 6.995-15.625 15.625-15.625Z"/>
      <path fill="#39D259" d="M419.013 163.598a9.858 9.858 0 0 1-2.993-1.386c-.906-.625-1.649-1.446-2.23-2.462-.58-1.016-.927-2.248-1.038-3.697-.105-1.447.101-3.135.617-5.063.481-1.768 1.107-3.295 1.878-4.581.78-1.291 1.674-2.323 2.683-3.097 1.016-.772 2.117-1.271 3.302-1.498 1.188-.233 2.433-.175 3.737.174 1.406.377 2.574.984 3.504 1.822.932.83 1.599 1.799 2 2.907a6.95 6.95 0 0 1 .353 3.458l-4.394-1.177c.025-.78-.18-1.453-.617-2.018-.437-.566-1.06-.957-1.869-1.174-1.372-.368-2.575-.05-3.608.952-1.027 1.005-1.822 2.531-2.385 4.578l.144.039a5.064 5.064 0 0 1 1.703-1.253 6.016 6.016 0 0 1 2.115-.525 6.87 6.87 0 0 1 2.289.227c1.248.334 2.281.927 3.097 1.778a6.49 6.49 0 0 1 1.659 3.026c.289 1.173.257 2.418-.096 3.735-.382 1.427-1.055 2.607-2.018 3.54-.957.935-2.113 1.559-3.469 1.872-1.347.308-2.802.249-4.364-.177Zm.917-3.504c.686.184 1.344.183 1.974-.001a3.651 3.651 0 0 0 1.635-.995c.459-.48.782-1.07.97-1.77.187-.7.201-1.369.041-2.007a3.596 3.596 0 0 0-.899-1.664c-.447-.473-1.014-.801-1.7-.985a3.656 3.656 0 0 0-1.507-.095 3.704 3.704 0 0 0-1.357.497 3.983 3.983 0 0 0-1.743 2.345 3.943 3.943 0 0 0-.036 1.987c.165.647.47 1.21.915 1.69.452.481 1.021.814 1.707.998Zm-11.064 31.854c-1.009-.27-1.86-.686-2.556-1.247a4.495 4.495 0 0 1-1.451-2.076c-.265-.821-.258-1.753.022-2.796.235-.878.594-1.572 1.076-2.083a4.048 4.048 0 0 1 1.703-1.087 6.61 6.61 0 0 1 2.114-.316c.763.006 1.546.076 2.348.21.945.15 1.71.259 2.295.328.586.061 1.029.04 1.329-.063.3-.104.495-.323.585-.66l.016-.061c.175-.652.104-1.211-.212-1.678-.309-.466-.837-.798-1.585-.999-.789-.211-1.464-.204-2.024.02-.558.218-.983.568-1.273 1.049l-3.967-1.416c.464-.905 1.091-1.627 1.882-2.165.793-.545 1.717-.878 2.772-1 1.063-.126 2.226-.021 3.488.317.878.236 1.691.564 2.438.985a6.825 6.825 0 0 1 1.895 1.533c.515.601.864 1.29 1.045 2.067.184.77.149 1.624-.102 2.564l-2.857 10.661-4.157-1.114.587-2.192-.123-.033a4.628 4.628 0 0 1-1.369 1.034 4.88 4.88 0 0 1-1.768.464c-.652.046-1.369-.036-2.151-.246Zm2.066-2.689c.645.173 1.248.199 1.81.077a3.126 3.126 0 0 0 1.444-.738c.399-.363.673-.823.822-1.379l.449-1.677a2.439 2.439 0 0 1-.632.095c-.251.006-.533.001-.845-.016a47.504 47.504 0 0 1-.926-.083l-.833-.102a5.57 5.57 0 0 0-1.444-.001c-.429.062-.787.205-1.075.429-.286.217-.484.532-.595.943-.16.597-.066 1.111.282 1.543.356.426.871.729 1.543.909Zm-13.437 30.381 13.369-14.947.038-.144-10.177-2.727.976-3.643 14.787 3.962-.99 3.695-13.403 15.037-4.6-1.233Zm-2.06 30.815c-1.537-.412-2.835-1.042-3.894-1.892-1.05-.855-1.797-1.842-2.24-2.961-.434-1.123-.497-2.302-.188-3.536l4.487 1.203a2.416 2.416 0 0 0 .14 1.493c.212.469.551.879 1.015 1.232.465.352 1.023.616 1.674.79.68.182 1.312.223 1.898.123.586-.101 1.083-.324 1.492-.67.409-.347.688-.798.837-1.353a2.554 2.554 0 0 0-.074-1.619c-.191-.522-.545-.985-1.062-1.388-.51-.401-1.163-.709-1.959-.922l-1.965-.526.877-3.273 1.965.527c.672.18 1.297.222 1.874.127.584-.094 1.075-.307 1.473-.642.401-.341.675-.79.824-1.345.142-.529.139-1.026-.008-1.492a2.613 2.613 0 0 0-.796-1.228c-.385-.345-.877-.598-1.473-.758a4.23 4.23 0 0 0-1.745-.115 3.007 3.007 0 0 0-1.45.593 2.5 2.5 0 0 0-.858 1.27l-4.271-1.144c.346-1.209.979-2.186 1.9-2.932.92-.746 2.02-1.227 3.298-1.443 1.287-.222 2.651-.139 4.092.247 1.454.389 2.656.994 3.605 1.815.95.821 1.606 1.761 1.969 2.821a5.323 5.323 0 0 1 .1 3.248c-.309 1.182-.94 2.068-1.892 2.658-.946.592-2.037.837-3.274.733l-.044.165c1.497.614 2.533 1.469 3.107 2.564.583 1.09.695 2.289.337 3.598-.314 1.202-.947 2.176-1.897 2.922-.942.747-2.096 1.225-3.461 1.432-1.364.208-2.835.101-4.413-.322Z"/>
      <path fill="#65CC7A" d="m435.624 276.444 11.14-12.456.032-.12-8.481-2.272.814-3.036 12.323 3.302-.825 3.078-11.17 12.531-3.833-1.027Zm-8.314 20.346.784-2.925 10.427-9.586 2.521.676-1.085 4.047-1.492-.4-6.582 6.077-.037.137 10.419 2.792-.797 2.975-14.158-3.793Zm7.603 5.345 1.066-3.979.415-1.276 3.293-12.289 3.482.933-4.706 17.563-3.55-.952Zm-12.737 22.469 11.14-12.455.032-.12-8.481-2.273.814-3.036 12.323 3.302-.825 3.079-11.17 12.531-3.833-1.028Zm-1.717 25.68c-1.28-.343-2.362-.869-3.245-1.577-.875-.713-1.497-1.535-1.866-2.467-.362-.937-.414-1.919-.157-2.947l3.739 1.002a2.02 2.02 0 0 0 .117 1.245c.177.39.459.732.846 1.026a3.99 3.99 0 0 0 1.395.659c.566.151 1.093.185 1.581.102.488-.084.903-.27 1.243-.559.341-.288.574-.664.698-1.127a2.126 2.126 0 0 0-.062-1.349c-.159-.435-.454-.821-.885-1.157-.425-.334-.969-.59-1.632-.768l-1.638-.439.731-2.727 1.638.439c.56.15 1.081.186 1.561.106.487-.078.896-.256 1.228-.535.334-.284.563-.658.687-1.121a2.187 2.187 0 0 0-.671-2.266c-.321-.288-.73-.499-1.227-.632a3.52 3.52 0 0 0-1.454-.096c-.465.066-.868.23-1.208.495a2.078 2.078 0 0 0-.716 1.058l-3.559-.954c.289-1.007.816-1.821 1.583-2.443.768-.622 1.684-1.023 2.749-1.203 1.073-.184 2.209-.116 3.41.206 1.212.325 2.214.829 3.005 1.513.791.684 1.337 1.467 1.64 2.351.309.88.337 1.782.083 2.706-.257.985-.783 1.723-1.577 2.215-.787.494-1.697.698-2.728.611l-.036.138c1.247.512 2.11 1.224 2.589 2.136.486.909.579 1.908.281 2.998-.262 1.002-.789 1.814-1.581 2.435-.785.623-1.747 1.021-2.884 1.194-1.137.174-2.363.084-3.678-.268Z"/>
      <path fill="#59B96C" d="M151.384 65.619a9.868 9.868 0 0 1-2.993-1.387c-.906-.625-1.649-1.445-2.23-2.461-.58-1.016-.927-2.249-1.038-3.698-.105-1.447.101-3.134.617-5.062.481-1.768 1.107-3.295 1.878-4.581.78-1.291 1.674-2.324 2.683-3.097 1.016-.772 2.117-1.272 3.302-1.498 1.188-.233 2.433-.175 3.737.174 1.406.377 2.574.984 3.504 1.821.932.83 1.599 1.8 2.001 2.908a6.963 6.963 0 0 1 .352 3.458l-4.394-1.177c.025-.78-.18-1.453-.617-2.019-.437-.565-1.06-.956-1.869-1.173-1.372-.368-2.575-.05-3.608.952-1.027 1.004-1.822 2.53-2.385 4.578l.144.038a5.077 5.077 0 0 1 1.703-1.253 6.032 6.032 0 0 1 2.115-.525 6.882 6.882 0 0 1 2.289.227c1.248.335 2.281.928 3.097 1.779a6.488 6.488 0 0 1 1.659 3.025c.289 1.173.257 2.418-.096 3.735-.382 1.427-1.055 2.607-2.018 3.54-.957.935-2.113 1.56-3.469 1.872-1.347.308-2.802.25-4.364-.176Zm.917-3.505c.686.184 1.344.184 1.974 0a3.647 3.647 0 0 0 1.635-.996c.459-.48.782-1.07.97-1.77.187-.699.201-1.368.042-2.006a3.607 3.607 0 0 0-.9-1.664c-.447-.473-1.014-.801-1.7-.985a3.651 3.651 0 0 0-1.507-.095 3.715 3.715 0 0 0-1.357.496 3.994 3.994 0 0 0-1.082.99 3.832 3.832 0 0 0-.661 1.356 3.94 3.94 0 0 0-.036 1.987c.165.647.47 1.21.915 1.69a3.54 3.54 0 0 0 1.707.997Zm-8.846 32.438c-1.455-.39-2.68-1.004-3.675-1.845-.989-.838-1.69-1.816-2.103-2.934-.414-1.119-.472-2.288-.174-3.51l4.322 1.158a2.721 2.721 0 0 0 .497 2.262c.502.678 1.192 1.135 2.07 1.37.7.188 1.359.2 1.977.034a3.426 3.426 0 0 0 1.615-.968c.46-.48.787-1.083.982-1.81.198-.741.215-1.435.05-2.082a3.465 3.465 0 0 0-.933-1.662c-.464-.463-1.049-.792-1.754-.989a4.62 4.62 0 0 0-1.902-.101c-.645.1-1.187.325-1.627.678l-3.771-1.772 3.976-10.846 12.883 3.452-.976 3.643-9.21-2.468-1.96 5.133.124.033c.51-.422 1.185-.704 2.025-.847.839-.143 1.722-.09 2.648.158 1.269.34 2.321.942 3.156 1.805a6.675 6.675 0 0 1 1.698 3.091c.298 1.19.263 2.46-.106 3.81-.373 1.422-1.041 2.596-2.002 3.522-.953.921-2.107 1.539-3.463 1.852-1.347.308-2.803.252-4.367-.167Zm-7.765 28.978c-1.454-.39-2.679-1.005-3.675-1.845-.988-.838-1.689-1.817-2.103-2.935-.413-1.118-.471-2.288-.173-3.509l4.322 1.158c-.171.829-.006 1.583.496 2.261.502.679 1.192 1.136 2.071 1.371.699.188 1.358.199 1.976.034a3.438 3.438 0 0 0 1.616-.968c.459-.48.786-1.083.981-1.811.199-.741.216-1.435.051-2.082a3.462 3.462 0 0 0-.934-1.662c-.464-.462-1.048-.792-1.753-.988a4.645 4.645 0 0 0-1.903-.102c-.644.1-1.186.326-1.626.679l-3.772-1.772 3.976-10.846 12.884 3.452-.976 3.643-9.21-2.468-1.96 5.133.123.033c.51-.422 1.185-.705 2.025-.847.84-.143 1.723-.09 2.649.158 1.269.34 2.321.942 3.156 1.805a6.687 6.687 0 0 1 1.697 3.091c.299 1.19.264 2.46-.105 3.81-.374 1.422-1.041 2.596-2.003 3.522-.953.921-2.107 1.538-3.463 1.852-1.347.308-2.803.252-4.367-.167Zm-7.884 28.946c-1.537-.412-2.835-1.043-3.894-1.893-1.05-.855-1.797-1.841-2.239-2.96-.435-1.124-.498-2.302-.189-3.536l4.487 1.202a2.419 2.419 0 0 0 .14 1.494c.212.468.551.879 1.015 1.231.465.353 1.023.616 1.675.791.679.182 1.311.223 1.897.122.586-.1 1.083-.324 1.492-.67.409-.346.688-.797.837-1.353a2.555 2.555 0 0 0-.074-1.619c-.191-.521-.545-.984-1.062-1.387-.51-.402-1.163-.709-1.959-.922l-1.965-.527.877-3.272 1.965.527c.672.18 1.297.222 1.874.127.584-.094 1.075-.308 1.474-.642.4-.342.674-.79.823-1.346.142-.528.139-1.025-.008-1.491a2.608 2.608 0 0 0-.796-1.228c-.385-.346-.876-.599-1.473-.759a4.228 4.228 0 0 0-1.745-.114 2.997 2.997 0 0 0-1.45.593c-.408.317-.694.74-.858 1.27l-4.271-1.144c.346-1.209.979-2.186 1.9-2.932.92-.746 2.02-1.228 3.298-1.444 1.287-.221 2.651-.139 4.092.247 1.454.39 2.656.995 3.605 1.816.95.82 1.606 1.761 1.969 2.821a5.323 5.323 0 0 1 .1 3.248c-.309 1.181-.94 2.067-1.892 2.658-.946.592-2.037.836-3.274.733l-.044.165c1.497.614 2.533 1.469 3.107 2.564.583 1.09.695 2.289.337 3.597-.314 1.203-.947 2.177-1.896 2.922-.943.748-2.097 1.225-3.462 1.433-1.364.208-2.835.101-4.413-.322Zm-7.645 29.01c-1.454-.39-2.679-1.005-3.675-1.845-.988-.839-1.689-1.817-2.103-2.935-.414-1.118-.471-2.288-.174-3.51l4.322 1.158c-.17.829-.005 1.583.497 2.262s1.192 1.136 2.07 1.371c.7.187 1.359.198 1.977.033a3.43 3.43 0 0 0 1.616-.968c.459-.479.786-1.083.981-1.81.199-.741.215-1.435.051-2.082a3.462 3.462 0 0 0-.934-1.662c-.464-.463-1.048-.792-1.753-.988a4.611 4.611 0 0 0-1.903-.102c-.644.099-1.187.325-1.627.678l-3.771-1.771 3.976-10.847 12.883 3.453-.976 3.642-9.21-2.467-1.959 5.132.123.033c.51-.422 1.185-.704 2.025-.847.839-.142 1.722-.09 2.649.159 1.269.34 2.321.941 3.155 1.805a6.67 6.67 0 0 1 1.698 3.091c.299 1.19.264 2.46-.105 3.809-.374 1.422-1.042 2.596-2.003 3.523-.953.921-2.107 1.538-3.463 1.851-1.347.308-2.803.253-4.367-.166Z"/>
      <path fill="#1E9738" d="M247.914 42.496c-1.768-.482-3.174-1.325-4.219-2.532-1.037-1.204-1.679-2.718-1.926-4.541-.24-1.822-.048-3.884.577-6.188.616-2.298 1.48-4.165 2.593-5.602 1.12-1.435 2.427-2.405 3.923-2.909 1.504-.509 3.137-.527 4.9-.054 1.763.472 3.166 1.304 4.207 2.494 1.048 1.193 1.698 2.69 1.95 4.494.254 1.796.07 3.842-.553 6.138-.619 2.312-1.492 4.196-2.617 5.652-1.118 1.457-2.428 2.448-3.929 2.972-1.501.525-3.136.55-4.906.076Zm.99-3.695c1.207.324 2.334-.025 3.38-1.046 1.045-1.022 1.89-2.747 2.534-5.178.428-1.598.62-2.973.576-4.125-.038-1.15-.283-2.072-.737-2.767a3.11 3.11 0 0 0-1.874-1.362c-1.2-.322-2.321.021-3.363 1.029-1.042 1.007-1.888 2.707-2.536 5.1-.434 1.619-.635 3.013-.603 4.183.041 1.166.287 2.1.739 2.801a3.15 3.15 0 0 0 1.884 1.365Zm-8.472 32.561a9.868 9.868 0 0 1-2.993-1.387c-.906-.625-1.649-1.445-2.23-2.461-.581-1.016-.927-2.249-1.038-3.698-.105-1.447.101-3.134.617-5.062.481-1.768 1.107-3.295 1.878-4.581.78-1.291 1.674-2.324 2.683-3.098 1.016-.772 2.116-1.27 3.302-1.497 1.188-.233 2.433-.175 3.736.174 1.407.377 2.575.984 3.505 1.821.932.83 1.599 1.8 2 2.908a6.952 6.952 0 0 1 .353 3.458l-4.394-1.177c.025-.78-.18-1.453-.617-2.019-.437-.565-1.06-.956-1.869-1.173-1.373-.368-2.575-.05-3.609.952-1.026 1.004-1.821 2.53-2.384 4.578l.144.038a5.068 5.068 0 0 1 1.703-1.253 6.032 6.032 0 0 1 2.115-.525 6.888 6.888 0 0 1 2.289.227c1.248.335 2.28.928 3.096 1.779a6.49 6.49 0 0 1 1.66 3.025c.289 1.173.257 2.418-.096 3.735-.382 1.427-1.055 2.607-2.018 3.54-.957.935-2.113 1.56-3.469 1.872-1.347.309-2.802.25-4.364-.176Zm.917-3.505c.686.184 1.344.184 1.974 0a3.637 3.637 0 0 0 1.634-.996c.46-.48.783-1.07.971-1.77.187-.699.201-1.368.041-2.006a3.614 3.614 0 0 0-.899-1.664c-.447-.473-1.014-.801-1.7-.985a3.65 3.65 0 0 0-1.507-.095 3.724 3.724 0 0 0-1.358.496 4.004 4.004 0 0 0-1.081.99 3.816 3.816 0 0 0-.661 1.356 3.941 3.941 0 0 0-.036 1.987c.165.647.47 1.21.915 1.69.452.48 1.021.814 1.707.997Zm-8.922 32.418c-1.585-.425-2.926-1.06-4.023-1.905-1.088-.85-1.862-1.819-2.321-2.905a5.009 5.009 0 0 1-.23-3.338 5.17 5.17 0 0 1 1.244-2.258 5.569 5.569 0 0 1 2.14-1.4 5.623 5.623 0 0 1 2.58-.324l.038-.144c-1.064-.528-1.83-1.318-2.299-2.37-.466-1.059-.545-2.164-.236-3.317.292-1.09.872-1.976 1.738-2.656.867-.686 1.922-1.124 3.164-1.313 1.251-.195 2.586-.102 4.006.279 1.42.38 2.62.967 3.599 1.758.986.794 1.683 1.705 2.091 2.733a4.936 4.936 0 0 1 .19 3.161c-.318 1.158-.946 2.074-1.884 2.75a4.762 4.762 0 0 1-3.155.907l-.039.145a5.523 5.523 0 0 1 2.041 1.561 5.55 5.55 0 0 1 1.153 2.283 5.12 5.12 0 0 1-.02 2.587 5.064 5.064 0 0 1-1.879 2.772c-.94.711-2.098 1.162-3.473 1.353-1.365.185-2.841.066-4.425-.359Zm.876-3.273c.707.19 1.358.228 1.955.116a3.146 3.146 0 0 0 1.521-.74c.425-.378.718-.866.878-1.463.163-.61.153-1.19-.03-1.74a3.301 3.301 0 0 0-.958-1.447c-.455-.416-1.025-.716-1.711-.9-.679-.182-1.323-.207-1.932-.076a3.272 3.272 0 0 0-1.563.772c-.427.386-.722.884-.886 1.494-.16.597-.154 1.165.018 1.704.173.532.493 1 .958 1.404.467.397 1.051.689 1.75.876Zm2.523-9.415c.59.158 1.147.178 1.671.061a2.804 2.804 0 0 0 1.348-.708c.375-.356.637-.811.786-1.367.147-.549.145-1.064-.005-1.545a2.774 2.774 0 0 0-.809-1.265c-.388-.361-.884-.623-1.488-.785-.597-.16-1.157-.18-1.681-.064-.522.11-.97.34-1.343.688-.364.344-.619.79-.766 1.339-.149.555-.15 1.08-.004 1.576.147.495.418.925.813 1.288.396.363.888.624 1.478.782Z"/>
      <path fill="#65CC7A" d="M71.897 213.791a9.853 9.853 0 0 1-2.992-1.386c-.906-.625-1.65-1.446-2.23-2.462-.58-1.016-.927-2.248-1.039-3.697-.105-1.447.101-3.135.618-5.063.48-1.768 1.107-3.295 1.878-4.581.78-1.291 1.674-2.323 2.683-3.097 1.016-.772 2.116-1.271 3.302-1.498 1.187-.233 2.433-.175 3.736.174 1.407.377 2.575.984 3.505 1.822.932.83 1.598 1.799 2 2.907a6.964 6.964 0 0 1 .353 3.459l-4.394-1.178c.025-.78-.18-1.453-.617-2.018-.437-.566-1.06-.957-1.87-1.174-1.372-.367-2.575-.05-3.608.953-1.026 1.004-1.821 2.53-2.384 4.577l.144.039a5.071 5.071 0 0 1 1.703-1.253 6.01 6.01 0 0 1 2.115-.525 6.864 6.864 0 0 1 2.288.227c1.249.334 2.281.927 3.097 1.778a6.498 6.498 0 0 1 1.66 3.026c.289 1.173.257 2.418-.096 3.735-.383 1.427-1.055 2.607-2.019 3.54-.956.935-2.112 1.559-3.468 1.872-1.347.308-2.802.249-4.365-.177Zm.917-3.504c.686.184 1.345.184 1.975-.001a3.646 3.646 0 0 0 1.634-.995c.46-.48.783-1.07.97-1.77.188-.699.202-1.369.042-2.007a3.608 3.608 0 0 0-.9-1.664c-.447-.472-1.013-.801-1.699-.985a3.676 3.676 0 0 0-1.508-.095 3.728 3.728 0 0 0-1.357.497 3.987 3.987 0 0 0-1.081.99 3.82 3.82 0 0 0-.661 1.355 3.943 3.943 0 0 0-.036 1.987c.165.647.47 1.211.915 1.69.451.481 1.02.814 1.706.998Zm-8.624 32.519c-1.627-.436-2.938-1.14-3.935-2.113a7.002 7.002 0 0 1-1.94-3.542c-.304-1.39-.233-2.919.214-4.586.435-1.626 1.133-2.968 2.094-4.027.96-1.059 2.105-1.778 3.434-2.157 1.337-.377 2.78-.358 4.33.058a8.527 8.527 0 0 1 2.777 1.284 6.693 6.693 0 0 1 1.967 2.126c.501.848.805 1.826.912 2.936.11 1.103-.017 2.326-.377 3.671l-.322 1.204-13.347-3.576.728-2.717 9.22 2.47c.17-.631.182-1.227.038-1.787a3.046 3.046 0 0 0-.836-1.448c-.405-.41-.927-.701-1.565-.872-.665-.178-1.296-.182-1.893-.011a3.357 3.357 0 0 0-1.522.905 3.58 3.58 0 0 0-.898 1.579l-.692 2.583c-.21.782-.246 1.496-.11 2.143.142.648.439 1.199.891 1.651.453.452 1.046.776 1.78.973.487.13.951.181 1.393.153a2.88 2.88 0 0 0 1.205-.339c.361-.198.67-.475.928-.832l3.983 1.354a5.728 5.728 0 0 1-1.95 2.212c-.823.552-1.79.895-2.9 1.032-1.102.131-2.304.022-3.608-.327Zm-7.822 28.941a9.879 9.879 0 0 1-2.992-1.387c-.906-.625-1.65-1.445-2.23-2.461-.58-1.016-.927-2.249-1.039-3.698-.105-1.447.101-3.134.618-5.062.48-1.768 1.107-3.295 1.878-4.581.78-1.291 1.674-2.324 2.683-3.097 1.015-.772 2.116-1.272 3.302-1.498 1.187-.233 2.433-.175 3.736.174 1.406.377 2.575.984 3.505 1.821.931.831 1.598 1.8 2 2.908a6.961 6.961 0 0 1 .353 3.458l-4.394-1.177c.025-.78-.18-1.453-.618-2.019-.436-.565-1.06-.956-1.869-1.173-1.372-.368-2.575-.05-3.608.952-1.026 1.004-1.821 2.53-2.385 4.578l.144.039a5.073 5.073 0 0 1 1.704-1.254 6.053 6.053 0 0 1 2.115-.525 6.89 6.89 0 0 1 2.288.227c1.249.335 2.281.928 3.097 1.779a6.494 6.494 0 0 1 1.66 3.025c.289 1.173.256 2.418-.097 3.735-.382 1.427-1.055 2.607-2.018 3.54-.956.935-2.112 1.559-3.468 1.872-1.348.309-2.802.25-4.365-.176Zm.917-3.505c.686.184 1.344.184 1.975 0a3.638 3.638 0 0 0 1.634-.996c.46-.48.783-1.069.97-1.769.188-.7.202-1.369.042-2.007a3.602 3.602 0 0 0-.9-1.664c-.447-.473-1.013-.801-1.7-.985a3.642 3.642 0 0 0-1.507-.095 3.725 3.725 0 0 0-1.357.496 4.003 4.003 0 0 0-1.081.99 3.815 3.815 0 0 0-.661 1.356 3.943 3.943 0 0 0-.037 1.987c.165.647.47 1.21.915 1.69a3.54 3.54 0 0 0 1.707.997Zm.06 17.575-.882 3.293-9.756-2.614.883-3.293 9.755 2.614Zm-11.758 13.79 4.542-16.948c.307-1.146.784-2.036 1.432-2.671a4.454 4.454 0 0 1 2.308-1.202c.883-.167 1.822-.118 2.816.148.673.181 1.273.397 1.801.648.535.254.929.459 1.181.615l-1.664 3.083a5.645 5.645 0 0 0-.597-.325 4 4 0 0 0-.742-.276c-.645-.173-1.135-.143-1.47.091-.332.227-.57.608-.714 1.143l-4.52 16.866-4.373-1.172Z"/>
      <path fill="#1F9A39" d="M88.552 305.4a9.854 9.854 0 0 1-2.993-1.386c-.906-.625-1.65-1.446-2.23-2.462-.58-1.016-.927-2.248-1.039-3.697-.105-1.447.101-3.135.618-5.063.481-1.768 1.107-3.295 1.878-4.581.78-1.291 1.674-2.323 2.683-3.097 1.016-.772 2.116-1.271 3.302-1.498 1.187-.233 2.433-.175 3.736.174 1.407.377 2.575.984 3.505 1.822.932.83 1.598 1.799 2 2.907a6.961 6.961 0 0 1 .353 3.458l-4.394-1.177c.025-.78-.18-1.453-.617-2.018-.437-.566-1.06-.957-1.87-1.174-1.372-.368-2.574-.05-3.608.952-1.026 1.005-1.821 2.531-2.384 4.578l.144.039a5.058 5.058 0 0 1 1.703-1.253 6.01 6.01 0 0 1 2.115-.525 6.863 6.863 0 0 1 2.288.227c1.249.334 2.281.927 3.097 1.778a6.497 6.497 0 0 1 1.66 3.026c.289 1.173.257 2.418-.096 3.735-.383 1.427-1.055 2.607-2.019 3.54-.956.935-2.112 1.559-3.468 1.872-1.347.308-2.802.249-4.364-.177Zm.916-3.504c.686.184 1.345.183 1.975-.001a3.645 3.645 0 0 0 1.634-.995c.46-.48.783-1.07.97-1.77.188-.7.202-1.369.042-2.007a3.608 3.608 0 0 0-.9-1.664c-.446-.473-1.013-.801-1.699-.985a3.659 3.659 0 0 0-1.507-.095 3.71 3.71 0 0 0-1.358.497 3.983 3.983 0 0 0-1.742 2.345 3.943 3.943 0 0 0-.036 1.987c.165.647.47 1.21.915 1.69.451.481 1.02.814 1.706.998ZM73.215 332.04l.86-3.211 9.363-4.936a28.886 28.886 0 0 0 2.052-1.237c.571-.376 1.033-.77 1.387-1.183.355-.42.607-.907.756-1.463.165-.617.167-1.187.005-1.708a2.87 2.87 0 0 0-.874-1.348c-.42-.378-.94-.649-1.557-.814-.645-.173-1.243-.194-1.793-.062-.55.132-1.02.407-1.412.824-.391.417-.677.962-.857 1.635l-4.23-1.134c.37-1.379 1.003-2.492 1.9-3.34.896-.848 1.981-1.399 3.255-1.654 1.274-.254 2.645-.184 4.113.209 1.51.405 2.751 1.024 3.726 1.859.984.83 1.662 1.798 2.034 2.905.373 1.107.396 2.268.07 3.482a6.422 6.422 0 0 1-1.104 2.23c-.516.692-1.3 1.405-2.349 2.139-1.047.727-2.471 1.554-4.272 2.484l-3.885 2.19-.038.145 8.85 2.371-.977 3.643-15.023-4.026Zm-5.573 29.565 13.369-14.947.038-.144-10.177-2.727.976-3.643 14.787 3.962-.99 3.695-13.403 15.037-4.6-1.233Zm-9.976 24.415.94-3.509 12.512-11.504 3.026.811-1.302 4.857-1.79-.48-7.899 7.291-.044.165 12.503 3.35-.957 3.571-16.99-4.552Zm9.123 6.415 1.279-4.775.499-1.532 3.95-14.746 4.179 1.119-5.647 21.075-4.26-1.141ZM61.24 102.552l.784-2.924L72.45 90.04l2.521.676-1.085 4.047-1.492-.4-6.582 6.077-.037.137 10.42 2.792-.798 2.975-14.158-3.793Zm7.603 5.346 1.066-3.979.415-1.277 3.293-12.288 3.482.933-4.706 17.562-3.55-.951ZM54.77 126.7l.783-2.924 10.427-9.587 2.521.676-1.084 4.048-1.492-.4-6.582 6.076-.037.137 10.419 2.792-.797 2.976L54.77 126.7Zm7.602 5.346 1.066-3.979.416-1.277 3.293-12.288 3.481.933-4.706 17.562-3.55-.951Zm-7.746 24.064a8.213 8.213 0 0 1-2.494-1.156 6.16 6.16 0 0 1-1.858-2.051c-.484-.847-.773-1.874-.866-3.081-.087-1.206.085-2.612.515-4.219.401-1.473.923-2.746 1.565-3.817.65-1.076 1.395-1.937 2.236-2.582a6.52 6.52 0 0 1 2.752-1.247c.99-.195 2.027-.147 3.113.144 1.172.315 2.146.82 2.92 1.518.777.692 1.333 1.5 1.668 2.423.34.925.438 1.885.294 2.882l-3.662-.981c.02-.65-.15-1.211-.514-1.682-.364-.471-.884-.797-1.558-.978-1.144-.306-2.146-.042-3.007.794-.855.836-1.518 2.108-1.987 3.814l.12.033a4.22 4.22 0 0 1 1.42-1.045 5.03 5.03 0 0 1 1.762-.437 5.706 5.706 0 0 1 1.907.189c1.04.279 1.9.773 2.58 1.482a5.413 5.413 0 0 1 1.384 2.521c.24.978.214 2.015-.08 3.113-.32 1.189-.88 2.172-1.683 2.95-.797.779-1.76 1.299-2.89 1.56-1.123.257-2.335.208-3.637-.147Zm.764-2.921a2.996 2.996 0 0 0 3.008-.83c.382-.4.652-.891.808-1.474a3.289 3.289 0 0 0 .035-1.673 2.958 2.958 0 0 0-2.166-2.207 3.043 3.043 0 0 0-1.256-.079c-.404.063-.78.201-1.132.413a3.331 3.331 0 0 0-1.451 1.955 3.285 3.285 0 0 0-.03 1.656c.137.539.391 1.008.762 1.408.376.401.85.678 1.422.831Zm-7.372 27.032c-1.212-.325-2.232-.837-3.062-1.538-.824-.698-1.408-1.513-1.753-2.445-.344-.932-.392-1.907-.144-2.925l3.602.965a2.269 2.269 0 0 0 .414 1.885c.418.565.993.946 1.725 1.142.583.157 1.132.166 1.647.028a2.863 2.863 0 0 0 1.346-.806c.383-.4.656-.903.818-1.509.166-.618.18-1.196.042-1.735a2.87 2.87 0 0 0-.778-1.385c-.386-.386-.874-.66-1.46-.824a3.858 3.858 0 0 0-1.587-.084c-.537.082-.988.271-1.355.565l-3.143-1.477 3.313-9.038 10.737 2.877-.814 3.035-7.675-2.056-1.633 4.277.103.028c.425-.352.988-.587 1.687-.706.7-.119 1.436-.075 2.208.132 1.057.283 1.934.785 2.63 1.504a5.558 5.558 0 0 1 1.414 2.576c.249.992.22 2.05-.088 3.175-.311 1.185-.867 2.163-1.669 2.935-.793.767-1.755 1.282-2.885 1.543-1.123.256-2.336.21-3.64-.139Z"/>
      <path fill="#11FA40" d="m154.986 346.186 11.14-12.456.033-.12-8.482-2.272.814-3.036 12.323 3.302-.825 3.078-11.17 12.531-3.833-1.027Zm-1.717 25.679c-1.28-.343-2.362-.869-3.245-1.577-.875-.712-1.497-1.535-1.866-2.467-.362-.936-.414-1.919-.157-2.946l3.739 1.001a2.02 2.02 0 0 0 .117 1.245c.177.391.459.733.846 1.026.387.294.852.514 1.395.659.566.152 1.093.186 1.581.102s.903-.27 1.243-.558c.341-.289.574-.665.698-1.128a2.126 2.126 0 0 0-.062-1.349c-.159-.435-.454-.82-.885-1.156-.425-.335-.969-.591-1.632-.768l-1.638-.439.731-2.727 1.638.439c.56.15 1.081.185 1.561.106.487-.078.896-.257 1.228-.535a2.17 2.17 0 0 0 .687-1.122 2.183 2.183 0 0 0-.671-2.266c-.321-.288-.73-.499-1.227-.632a3.52 3.52 0 0 0-1.454-.095c-.465.065-.868.23-1.208.494a2.078 2.078 0 0 0-.716 1.058l-3.559-.953c.289-1.008.816-1.822 1.583-2.444.768-.621 1.684-1.022 2.749-1.203 1.073-.184 2.209-.115 3.41.206 1.212.325 2.214.829 3.005 1.513.791.684 1.337 1.468 1.64 2.351a4.44 4.44 0 0 1 .083 2.707c-.257.984-.783 1.723-1.577 2.215-.787.493-1.697.697-2.728.611l-.036.137c1.247.512 2.11 1.224 2.589 2.137.486.908.579 1.907.281 2.998-.262 1.002-.789 1.813-1.581 2.435-.785.623-1.747 1.021-2.884 1.194-1.137.173-2.363.083-3.678-.269Zm-6.233 24.212a8.215 8.215 0 0 1-2.494-1.156 6.153 6.153 0 0 1-1.859-2.051c-.484-.846-.772-1.873-.865-3.081-.088-1.206.084-2.612.514-4.219.401-1.473.923-2.746 1.566-3.817.649-1.076 1.395-1.936 2.235-2.581a6.515 6.515 0 0 1 2.752-1.248c.99-.195 2.027-.146 3.114.145 1.172.314 2.145.82 2.92 1.518.777.692 1.332 1.499 1.667 2.422.341.925.439 1.886.294 2.882l-3.662-.981c.021-.65-.15-1.21-.514-1.682-.364-.471-.883-.797-1.558-.978-1.143-.306-2.145-.042-3.007.794-.855.837-1.517 2.108-1.987 3.815l.12.032c.403-.45.876-.798 1.42-1.044a5.004 5.004 0 0 1 1.762-.438 5.758 5.758 0 0 1 1.907.189c1.041.279 1.901.773 2.581 1.482a5.41 5.41 0 0 1 1.383 2.521c.241.978.214 2.015-.08 3.113-.319 1.189-.879 2.173-1.682 2.95-.797.779-1.761 1.299-2.891 1.56-1.122.257-2.335.208-3.636-.147Zm.764-2.92a2.994 2.994 0 0 0 3.007-.831 3.34 3.34 0 0 0 .809-1.474 3.294 3.294 0 0 0 .034-1.673 2.998 2.998 0 0 0-.75-1.386 2.948 2.948 0 0 0-1.416-.821 3.04 3.04 0 0 0-1.256-.079c-.403.063-.78.201-1.131.414a3.308 3.308 0 0 0-.901.824 3.184 3.184 0 0 0-.551 1.13 3.278 3.278 0 0 0-.03 1.656c.137.539.391 1.008.762 1.408.377.401.851.678 1.423.832Zm-7.11 27.12c-1.349-.362-2.433-.958-3.252-1.791a6 6 0 0 1-1.586-2.998c-.24-1.161-.182-2.408.175-3.74.362-1.349.939-2.463 1.732-3.341.8-.882 1.76-1.48 2.879-1.793 1.121-.318 2.347-.299 3.679.058 1.149.308 2.1.786 2.851 1.435.751.648 1.278 1.417 1.578 2.307.301.889.341 1.85.12 2.881l-3.447-.924c.079-.683-.037-1.281-.347-1.793-.303-.516-.789-.864-1.458-1.043-.566-.152-1.101-.13-1.607.065-.499.192-.943.547-1.334 1.068-.391.52-.697 1.195-.919 2.024-.225.84-.302 1.585-.232 2.235.077.652.286 1.189.626 1.611.34.422.793.709 1.359.86a2.49 2.49 0 0 0 1.193.044 2.238 2.238 0 0 0 1.031-.523c.312-.272.564-.63.757-1.075l3.447.924c-.326.991-.838 1.803-1.535 2.438-.69.63-1.521 1.044-2.493 1.243-.973.199-2.045.142-3.217-.172Z" opacity=".73"/>
      <path fill="#78E98F" d="M211.661 377.21a9.882 9.882 0 0 1-2.993-1.386c-.906-.626-1.649-1.446-2.23-2.462-.581-1.016-.927-2.248-1.039-3.697-.104-1.448.101-3.135.618-5.063.481-1.768 1.107-3.295 1.878-4.581.78-1.291 1.674-2.323 2.683-3.097 1.016-.772 2.116-1.271 3.302-1.498 1.187-.233 2.433-.175 3.736.174 1.407.377 2.575.984 3.505 1.822.932.83 1.599 1.799 2 2.907a6.961 6.961 0 0 1 .353 3.458l-4.394-1.177c.025-.78-.181-1.453-.617-2.018-.437-.566-1.06-.957-1.87-1.174-1.372-.368-2.574-.05-3.608.952-1.026 1.005-1.821 2.531-2.384 4.578l.144.039a5.055 5.055 0 0 1 1.703-1.253 6.039 6.039 0 0 1 2.115-.526 6.888 6.888 0 0 1 2.288.228c1.249.334 2.281.927 3.097 1.778a6.491 6.491 0 0 1 1.66 3.026c.289 1.172.257 2.417-.096 3.735-.383 1.427-1.055 2.607-2.019 3.54-.956.935-2.112 1.559-3.468 1.872-1.347.308-2.802.249-4.364-.177Zm.917-3.504c.686.183 1.344.183 1.974-.001a3.636 3.636 0 0 0 1.634-.996c.46-.479.783-1.069.971-1.769.187-.7.201-1.369.041-2.007a3.614 3.614 0 0 0-.899-1.664c-.447-.473-1.014-.801-1.7-.985a3.656 3.656 0 0 0-1.507-.095 3.716 3.716 0 0 0-1.358.497 3.994 3.994 0 0 0-1.081.989 3.828 3.828 0 0 0-.661 1.356 3.942 3.942 0 0 0-.036 1.987c.165.647.47 1.21.915 1.69.452.481 1.021.814 1.707.998Zm.059 17.574-.882 3.293-9.755-2.614.882-3.293 9.755 2.614Zm-11.757 13.791 4.541-16.949c.307-1.145.785-2.036 1.433-2.671a4.454 4.454 0 0 1 2.307-1.202c.883-.167 1.822-.118 2.817.149.672.18 1.272.396 1.8.648.535.253.929.458 1.181.614l-1.664 3.083a5.666 5.666 0 0 0-.597-.325 4.134 4.134 0 0 0-.742-.276c-.645-.173-1.135-.142-1.469.091-.333.227-.571.608-.715 1.143l-4.519 16.866-4.373-1.171Zm-4.749 30.094a9.853 9.853 0 0 1-2.992-1.386c-.906-.625-1.649-1.446-2.23-2.461-.581-1.016-.927-2.249-1.039-3.698-.105-1.447.101-3.134.618-5.062.481-1.768 1.107-3.295 1.878-4.581.78-1.291 1.674-2.324 2.683-3.098 1.016-.772 2.116-1.271 3.302-1.497 1.187-.233 2.433-.175 3.736.174 1.407.377 2.575.984 3.505 1.821.932.831 1.598 1.8 2 2.907a6.967 6.967 0 0 1 .353 3.459l-4.394-1.178c.025-.78-.181-1.452-.617-2.018-.437-.565-1.06-.957-1.87-1.173-1.372-.368-2.574-.051-3.608.952-1.026 1.004-1.821 2.53-2.385 4.578l.145.038a5.072 5.072 0 0 1 1.703-1.253 6.005 6.005 0 0 1 2.115-.525 6.887 6.887 0 0 1 2.288.227c1.249.335 2.281.927 3.097 1.778a6.505 6.505 0 0 1 1.66 3.026c.289 1.173.257 2.418-.096 3.735-.383 1.427-1.055 2.607-2.019 3.54-.956.935-2.112 1.559-3.468 1.872-1.347.308-2.802.249-4.365-.177Zm.917-3.504c.686.184 1.345.184 1.975 0a3.636 3.636 0 0 0 1.634-.996c.46-.48.783-1.07.971-1.769.187-.7.201-1.369.041-2.008a3.604 3.604 0 0 0-.9-1.663c-.446-.473-1.013-.801-1.699-.985a3.643 3.643 0 0 0-1.508-.095 3.71 3.71 0 0 0-1.357.496 3.999 3.999 0 0 0-1.081.99 3.811 3.811 0 0 0-.661 1.356 3.939 3.939 0 0 0-.036 1.986 3.82 3.82 0 0 0 .915 1.69c.451.482 1.02.814 1.706.998Zm.6 12.072-5.647 21.075-4.456-1.194 4.514-16.845-.124-.033-5.637 1.732 1.059-3.952 6.103-1.905 4.188 1.122Z" opacity=".73"/>
      <path fill="#5FC373" d="M303.503 62.792c-1.576-.422-2.903-1.089-3.981-1.999-1.071-.908-1.831-1.968-2.279-3.18-.448-1.21-.51-2.478-.188-3.801l4.682 1.254c-.184.898-.005 1.715.539 2.45.544.736 1.291 1.23 2.242 1.485.758.204 1.472.216 2.141.036a3.715 3.715 0 0 0 1.751-1.048c.498-.52.852-1.173 1.063-1.961.215-.803.234-1.555.055-2.256a3.75 3.75 0 0 0-1.011-1.8c-.503-.501-1.136-.858-1.9-1.07a5.011 5.011 0 0 0-2.061-.111c-.698.108-1.286.353-1.762.735l-4.086-1.92 4.307-11.75 13.957 3.74-1.057 3.947-9.977-2.674-2.124 5.56.134.036c.553-.457 1.284-.763 2.194-.917.909-.155 1.866-.098 2.869.171 1.375.369 2.515 1.02 3.419 1.956a7.238 7.238 0 0 1 1.839 3.348c.324 1.29.286 2.665-.114 4.128-.405 1.54-1.128 2.812-2.17 3.815-1.032.998-2.282 1.667-3.751 2.006-1.46.334-3.037.274-4.731-.18Zm-8.539 31.561c-1.916-.52-3.439-1.435-4.571-2.742-1.124-1.305-1.819-2.945-2.086-4.92-.26-1.974-.052-4.208.625-6.703.667-2.49 1.603-4.513 2.809-6.07 1.213-1.554 2.63-2.605 4.249-3.15 1.63-.552 3.399-.571 5.309-.06 1.91.512 3.429 1.413 4.557 2.703 1.136 1.292 1.84 2.915 2.113 4.868.276 1.945.076 4.162-.599 6.65-.671 2.504-1.616 4.545-2.835 6.122-1.212 1.58-2.63 2.653-4.256 3.22-1.626.569-3.398.596-5.315.082Zm1.072-4.002c1.308.35 2.529-.027 3.661-1.134 1.133-1.106 2.048-2.976 2.746-5.608.464-1.732.672-3.222.624-4.47-.041-1.245-.307-2.244-.798-2.997a3.375 3.375 0 0 0-2.03-1.476c-1.301-.349-2.515.023-3.644 1.115-1.129 1.091-2.045 2.933-2.747 5.524-.47 1.754-.688 3.265-.653 4.533.044 1.263.311 2.274.8 3.034a3.415 3.415 0 0 0 2.041 1.48Zm-9.484 35.395c-1.915-.521-3.439-1.435-4.57-2.742-1.124-1.305-1.82-2.945-2.087-4.92-.26-1.974-.052-4.208.625-6.703.667-2.49 1.604-4.513 2.809-6.07 1.213-1.555 2.63-2.605 4.25-3.151 1.629-.551 3.399-.571 5.309-.059 1.91.512 3.429 1.413 4.557 2.703 1.135 1.292 1.839 2.914 2.113 4.867.275 1.946.075 4.163-.599 6.65-.671 2.505-1.617 4.546-2.836 6.123-1.211 1.579-2.63 2.652-4.256 3.221-1.626.568-3.397.595-5.315.081Zm1.073-4.002c1.308.35 2.528-.028 3.661-1.134 1.133-1.106 2.048-2.976 2.745-5.609.464-1.732.672-3.221.624-4.469-.04-1.245-.306-2.245-.798-2.997a3.369 3.369 0 0 0-2.03-1.476c-1.3-.349-2.515.023-3.644 1.114-1.129 1.092-2.044 2.933-2.747 5.525-.47 1.754-.687 3.265-.653 4.533.044 1.262.311 2.273.8 3.034a3.417 3.417 0 0 0 2.042 1.479Zm-40.762 288.141a8.21 8.21 0 0 1-2.493-1.156 6.162 6.162 0 0 1-1.859-2.051c-.484-.846-.772-1.874-.865-3.081-.088-1.206.084-2.612.514-4.219.401-1.473.923-2.746 1.565-3.817.65-1.076 1.395-1.937 2.236-2.581a6.515 6.515 0 0 1 2.752-1.248c.989-.195 2.027-.146 3.113.145 1.172.314 2.146.82 2.921 1.517.776.693 1.332 1.5 1.667 2.423.34.925.438 1.885.294 2.882l-3.662-.981c.021-.65-.15-1.211-.514-1.682-.364-.471-.883-.797-1.558-.978-1.143-.306-2.146-.042-3.007.794-.855.837-1.518 2.108-1.987 3.815l.12.032a4.23 4.23 0 0 1 1.42-1.045 5.025 5.025 0 0 1 1.762-.437 5.706 5.706 0 0 1 1.907.189c1.04.279 1.901.773 2.581 1.482a5.422 5.422 0 0 1 1.383 2.521c.241.978.214 2.015-.08 3.113-.319 1.189-.88 2.172-1.682 2.95-.797.779-1.761 1.299-2.891 1.56-1.122.257-2.335.208-3.637-.147Zm.764-2.921a2.989 2.989 0 0 0 1.646 0 3.03 3.03 0 0 0 1.362-.83c.383-.4.652-.891.808-1.474a3.283 3.283 0 0 0 .035-1.673 2.993 2.993 0 0 0-.75-1.386 2.948 2.948 0 0 0-1.416-.821 3.042 3.042 0 0 0-1.256-.079c-.403.063-.78.201-1.131.413a3.313 3.313 0 0 0-.901.825c-.254.33-.438.707-.551 1.13a3.278 3.278 0 0 0-.03 1.656c.137.539.391 1.008.762 1.408.377.401.851.678 1.422.831Zm-2.55 8.986a7.827 7.827 0 0 1 2.485 1.153 6.212 6.212 0 0 1 1.859 2.051c.485.841.772 1.862.861 3.062.097 1.196-.065 2.59-.486 4.18-.399 1.493-.925 2.779-1.576 3.861-.644 1.077-1.387 1.941-2.23 2.592a6.486 6.486 0 0 1-2.756 1.265c-.994.187-2.034.135-3.12-.156-1.172-.314-2.146-.817-2.923-1.509a6.037 6.037 0 0 1-1.671-2.442 5.999 5.999 0 0 1-.273-2.923l3.661.981c-.028.679.139 1.257.501 1.734.364.471.883.797 1.558.978 1.143.306 2.145.042 3.006-.794.863-.841 1.53-2.13 2.001-3.866l-.12-.032a4.356 4.356 0 0 1-1.419 1.044 5.154 5.154 0 0 1-1.763.438 5.711 5.711 0 0 1-1.907-.19c-1.034-.277-1.893-.767-2.574-1.471a5.404 5.404 0 0 1-1.383-2.521c-.241-.978-.215-2.012.078-3.104.31-1.179.862-2.156 1.658-2.929.795-.773 1.754-1.288 2.877-1.545 1.13-.261 2.349-.213 3.656.143Zm-.755 2.923c-.578-.155-1.129-.156-1.654-.002-.52.155-.973.428-1.36.821a3.183 3.183 0 0 0-.793 1.451 3.332 3.332 0 0 0-.041 1.662c.135.526.385.985.752 1.378.374.388.847.659 1.419.812a3.04 3.04 0 0 0 2.385-.326c.351-.213.653-.484.907-.814.254-.33.437-.704.549-1.121a3.27 3.27 0 0 0 .014-1.632 3.118 3.118 0 0 0-.764-1.4 2.935 2.935 0 0 0-1.414-.829Zm-15.414 37.707 11.141-12.456.032-.12-8.481-2.272.813-3.036 12.323 3.302-.825 3.078-11.17 12.531-3.833-1.027Zm-1.657 25.695c-1.32-.353-2.438-.883-3.352-1.587-.907-.709-1.551-1.516-1.934-2.421a4.183 4.183 0 0 1-.192-2.781 4.31 4.31 0 0 1 1.037-1.882 4.637 4.637 0 0 1 1.784-1.167 4.681 4.681 0 0 1 2.149-.27l.032-.12c-.887-.44-1.525-1.098-1.915-1.975-.389-.882-.455-1.803-.197-2.764a4.07 4.07 0 0 1 1.448-2.213c.723-.572 1.602-.937 2.637-1.095 1.042-.162 2.155-.084 3.338.233 1.183.317 2.183.805 2.999 1.465.821.661 1.402 1.421 1.742 2.278a4.11 4.11 0 0 1 .159 2.634c-.265.965-.788 1.728-1.57 2.291a3.971 3.971 0 0 1-2.629.757l-.033.12a4.59 4.59 0 0 1 1.701 1.301c.469.561.789 1.195.961 1.903a4.256 4.256 0 0 1-.017 2.155 4.224 4.224 0 0 1-1.565 2.31c-.784.593-1.749.969-2.894 1.127-1.139.155-2.368.055-3.689-.299Zm.731-2.727c.589.158 1.132.19 1.629.097.498-.1.921-.305 1.268-.616.354-.316.598-.723.731-1.22a2.472 2.472 0 0 0-.025-1.45 2.755 2.755 0 0 0-.798-1.206c-.379-.347-.855-.597-1.426-.75-.566-.151-1.103-.173-1.61-.063-.506.103-.94.318-1.303.643a2.5 2.5 0 0 0-.738 1.245c-.133.498-.128.971.015 1.42.145.443.411.833.799 1.17.389.331.875.574 1.458.73Zm2.103-7.846c.491.132.955.149 1.392.051a2.333 2.333 0 0 0 1.123-.59c.313-.296.531-.676.655-1.139.122-.457.121-.887-.004-1.288a2.32 2.32 0 0 0-.674-1.054c-.324-.301-.737-.519-1.24-.654-.497-.133-.964-.151-1.401-.053a2.298 2.298 0 0 0-1.119.573c-.303.286-.516.658-.639 1.116a2.381 2.381 0 0 0-.003 1.313c.123.413.349.771.678 1.073.329.303.74.52 1.232.652Z"/>
      <path fill="#1E9738" d="m353.828 63.706-5.647 21.075-4.456-1.194 4.514-16.845-.124-.033-5.637 1.732 1.059-3.951 6.102-1.906 4.189 1.122Zm-7.765 28.978-5.647 21.075-4.456-1.194 4.514-16.845-.123-.033-5.637 1.732 1.059-3.952 6.102-1.905 4.188 1.122Zm-17.328 49.5c-1.768-.481-3.174-1.325-4.218-2.531-1.038-1.205-1.68-2.719-1.927-4.542-.24-1.822-.047-3.884.577-6.187.616-2.299 1.48-4.166 2.593-5.603 1.12-1.435 2.428-2.405 3.923-2.909 1.504-.508 3.138-.527 4.901-.054 1.763.472 3.165 1.304 4.206 2.495 1.048 1.192 1.698 2.69 1.951 4.493.254 1.796.069 3.842-.553 6.138-.62 2.312-1.492 4.196-2.618 5.652-1.118 1.457-2.428 2.448-3.929 2.973-1.5.524-3.136.549-4.906.075Zm.99-3.694c1.208.323 2.334-.026 3.38-1.047 1.046-1.021 1.89-2.747 2.534-5.177.429-1.599.621-2.974.576-4.125-.037-1.15-.283-2.073-.736-2.768a3.116 3.116 0 0 0-1.874-1.362c-1.201-.322-2.322.021-3.364 1.029-1.042 1.007-1.887 2.707-2.536 5.1-.433 1.619-.634 3.013-.602 4.184.04 1.165.286 2.099.738 2.8a3.156 3.156 0 0 0 1.884 1.366Zm39.242 27.415c-1.768-.481-3.175-1.325-4.219-2.531-1.037-1.205-1.68-2.719-1.926-4.542-.24-1.822-.048-3.884.577-6.187.615-2.299 1.48-4.166 2.593-5.603 1.12-1.435 2.427-2.405 3.922-2.909 1.504-.508 3.138-.527 4.901-.054 1.763.472 3.165 1.304 4.206 2.495 1.049 1.192 1.699 2.69 1.951 4.493.254 1.796.07 3.842-.553 6.138-.619 2.312-1.492 4.196-2.617 5.652-1.119 1.457-2.428 2.448-3.929 2.973-1.501.524-3.136.549-4.906.075Zm.99-3.694c1.207.323 2.334-.026 3.379-1.047 1.046-1.021 1.891-2.747 2.535-5.178.428-1.598.62-2.973.576-4.125-.038-1.149-.283-2.072-.737-2.767a3.114 3.114 0 0 0-1.874-1.362c-1.2-.322-2.322.021-3.364 1.029-1.042 1.007-1.887 2.707-2.535 5.1-.434 1.619-.635 3.013-.603 4.184.041 1.165.287 2.098.739 2.8a3.154 3.154 0 0 0 1.884 1.366Zm.808 12.15-5.647 21.075-4.455-1.194 4.513-16.846-.123-.033-5.637 1.732 1.059-3.951 6.102-1.905 4.188 1.122Z"/>
      <path fill="#65CC7A" d="M429.083 125.073c-1.768-.481-3.174-1.325-4.218-2.531-1.038-1.205-1.68-2.719-1.927-4.542-.24-1.822-.047-3.884.577-6.187.616-2.299 1.48-4.166 2.593-5.603 1.12-1.435 2.428-2.405 3.923-2.909 1.504-.508 3.137-.527 4.901-.054 1.763.472 3.165 1.304 4.206 2.495 1.048 1.192 1.698 2.69 1.95 4.493.254 1.796.07 3.842-.552 6.138-.62 2.312-1.492 4.196-2.618 5.652-1.118 1.457-2.428 2.448-3.929 2.973-1.5.524-3.136.549-4.906.075Zm.99-3.695c1.208.324 2.334-.025 3.38-1.046 1.046-1.021 1.89-2.747 2.534-5.178.428-1.598.62-2.973.576-4.125-.037-1.149-.283-2.072-.736-2.767a3.116 3.116 0 0 0-1.874-1.362c-1.201-.322-2.322.021-3.364 1.029-1.042 1.007-1.887 2.707-2.536 5.1-.434 1.619-.634 3.013-.602 4.184.04 1.165.286 2.098.738 2.8a3.151 3.151 0 0 0 1.884 1.365Z"/>
      <path fill="#3CC75A" d="M198.577 58.05c-1.474-.401-2.646-1.104-3.516-2.11-.865-1.003-1.4-2.265-1.605-3.785-.2-1.518-.04-3.236.48-5.156.514-1.915 1.234-3.471 2.161-4.669.934-1.196 2.023-2.003 3.269-2.423 1.254-.424 2.615-.44 4.084-.046 1.469.394 2.638 1.087 3.505 2.08.874.993 1.416 2.241 1.626 3.743.212 1.497.058 3.202-.461 5.116-.516 1.927-1.243 3.496-2.181 4.71-.932 1.214-2.023 2.04-3.274 2.477-1.251.437-2.613.458-4.088.063Zm.824-3.079c1.007.27 1.945-.021 2.817-.872.871-.851 1.575-2.29 2.112-4.315.357-1.332.517-2.478.48-3.437-.032-.958-.236-1.727-.614-2.306a2.595 2.595 0 0 0-1.562-1.135c-1-.269-1.934.017-2.803.857-.868.84-1.572 2.256-2.113 4.25-.361 1.349-.529 2.511-.502 3.486.034.971.239 1.75.615 2.334.378.58.902.959 1.57 1.138Zm.674 10.125-4.706 17.563-3.713-.995 3.762-14.038-.103-.028-4.697 1.444.882-3.293 5.085-1.588 3.49.935Zm-14.439 41.25c-1.474-.401-2.646-1.104-3.516-2.109-.865-1.004-1.4-2.266-1.605-3.785-.2-1.518-.04-3.237.481-5.156.513-1.915 1.233-3.472 2.16-4.67.934-1.195 2.023-2.003 3.269-2.423 1.254-.424 2.615-.44 4.084-.046 1.469.394 2.638 1.087 3.506 2.08.873.993 1.415 2.241 1.625 3.744.212 1.496.058 3.202-.461 5.115-.516 1.927-1.243 3.497-2.181 4.71-.932 1.214-2.023 2.04-3.274 2.477-1.251.437-2.613.458-4.088.063Zm.824-3.079c1.007.27 1.945-.021 2.817-.872.871-.851 1.575-2.289 2.112-4.314.357-1.332.517-2.478.48-3.438-.032-.958-.236-1.727-.614-2.306a2.595 2.595 0 0 0-1.562-1.135c-1-.268-1.934.017-2.803.857-.868.84-1.572 2.256-2.113 4.25-.361 1.35-.529 2.511-.502 3.487.034.971.239 1.749.615 2.334.378.579.902.958 1.57 1.137Z"/>
      <path fill="#1E9738" d="m465.59 197.181-5.647 21.075-4.456-1.194 4.514-16.846-.123-.033-5.637 1.732 1.059-3.951 6.102-1.905 4.188 1.122Zm-17.328 49.499c-1.768-.481-3.174-1.324-4.218-2.531-1.038-1.204-1.68-2.718-1.927-4.542-.239-1.821-.047-3.884.577-6.187.616-2.298 1.481-4.166 2.594-5.603 1.119-1.435 2.427-2.404 3.922-2.908 1.504-.509 3.138-.527 4.901-.055 1.763.473 3.165 1.304 4.206 2.495 1.048 1.193 1.698 2.69 1.951 4.493.254 1.796.069 3.842-.553 6.139-.62 2.312-1.492 4.196-2.618 5.651-1.118 1.458-2.428 2.449-3.928 2.973-1.501.525-3.137.55-4.907.075Zm.99-3.694c1.208.324 2.334-.025 3.38-1.046 1.046-1.022 1.89-2.748 2.534-5.178.429-1.598.621-2.973.576-4.125-.037-1.15-.283-2.072-.736-2.767a3.114 3.114 0 0 0-1.874-1.362c-1.201-.322-2.322.021-3.364 1.028-1.042 1.008-1.887 2.708-2.536 5.1-.433 1.619-.634 3.014-.602 4.184.04 1.165.287 2.099.738 2.801a3.154 3.154 0 0 0 1.884 1.365Z"/>
      <path fill="#5FC373" d="m399.604 64.208-4.706 17.562-3.713-.995 3.762-14.038-.103-.027-4.698 1.443.883-3.293 5.085-1.587 3.49.935Zm-6.47 24.148-4.706 17.562-3.713-.995 3.761-14.038-.103-.027-4.697 1.443.882-3.293 5.085-1.587 3.491.935Zm-6.471 24.148-4.706 17.562-3.713-.995 3.762-14.037-.103-.028-4.698 1.444.883-3.293 5.085-1.588 3.49.935Z"/>
    </g>
  </g>
  <defs>
    <clipPath id="a">
      <path fill="#fff" d="M0 0h500v500H0z"/>
    </clipPath>
  </defs>
</svg>
